<svg width="24" height="24" viewBox="0 0 24 24" fill="none" xmlns="http://www.w3.org/2000/svg">
<path fill-rule="evenodd" clip-rule="evenodd" d="M15.5 8C15.5 9.933 13.933 11.5 12 11.5C10.067 11.5 8.5 9.933 8.5 8C8.5 6.067 10.067 4.5 12 4.5C13.933 4.5 15.5 6.067 15.5 8ZM17 8C17 10.7614 14.7614 13 12 13C9.23858 13 7 10.7614 7 8C7 5.23858 9.23858 3 12 3C14.7614 3 17 5.23858 17 8ZM3.38131 21.0399C4.7445 17.5457 7.64913 15.25 11.991 15.25C14.2189 15.25 16.0234 15.7271 17.4297 16.6587C18.8299 17.5862 19.8996 19.0064 20.5902 21.0115L22.0084 20.5231C21.2293 18.2608 19.9781 16.5475 18.2581 15.4081C16.5443 14.2729 14.4294 13.75 11.991 13.75C6.99998 13.75 3.56018 16.4543 1.98389 20.4947L3.38131 21.0399Z" fill="white"/>
</svg>
