<?xml version="1.0" encoding="utf-8"?>
<!-- Generator: Adobe Illustrator 23.0.6, SVG Export Plug-In . SVG Version: 6.00 Build 0)  -->
<svg version="1.1" id="Layer_1" xmlns="http://www.w3.org/2000/svg" xmlns:xlink="http://www.w3.org/1999/xlink" x="0px" y="0px"
	 viewBox="0 0 20 20" style="enable-background:new 0 0 20 20;" xml:space="preserve">
<style type="text/css">
	.st0{fill:#DEDEDE;}
</style>
<title>Location Icon</title>
<desc>Created with Sketch.</desc>
<g>
	<path class="st0" d="M10,20L3.8,9.6C3.3,8.6,3,7.6,3,6.5C3,2.9,6.1,0,10,0c3.9,0,7,2.9,7,6.5c0,1.1-0.3,2.1-0.8,3.1L10,20z M10,0.9
		c-3.3,0-6.1,2.5-6.1,5.6c0,0.9,0.2,1.8,0.7,2.6l5.4,9.1l5.4-9c0.5-0.8,0.7-1.7,0.7-2.6C16.1,3.4,13.3,0.9,10,0.9z"/>
	<path class="st0" d="M10.1,10c-1.9,0-3.5-1.6-3.5-3.5S8.1,3,10.1,3c1.9,0,3.5,1.6,3.5,3.5S12,10,10.1,10z M10.1,3.9
		c-1.4,0-2.6,1.2-2.6,2.6s1.2,2.6,2.6,2.6s2.6-1.2,2.6-2.6S11.5,3.9,10.1,3.9z"/>
</g>
</svg>
