<?xml version="1.0" encoding="UTF-8"?>
<svg width="26px" height="26px" viewBox="0 0 26 26" version="1.1" xmlns="http://www.w3.org/2000/svg" xmlns:xlink="http://www.w3.org/1999/xlink">
    <!-- Generator: Sketch 55.2 (78181) - https://sketchapp.com -->
    <title>Instagram</title>
    <desc>Created with Sketch.</desc>
    <g id="Symbols" stroke="none" stroke-width="1" fill="none" fill-rule="evenodd">
        <g id="Desktop/Organism/Footer/Default" transform="translate(-777.000000, -466.000000)" fill="#DEDEDE" fill-rule="nonzero">
            <g id="Social-Icons">
                <g transform="translate(638.000000, 467.000000)">
                    <g id="Instagram" transform="translate(140.000000, 0.000000)">
                        <path d="M24.6,17.7382857 C24.6,21.5279423 21.5279423,24.6 17.7382857,24.6 L6.26171429,24.6 C2.47205772,24.6 -0.6,21.5279423 -0.6,17.7382857 L-0.6,6.26057143 C-0.6,2.47109898 2.47187354,-0.6 6.26171429,-0.6 L17.7382857,-0.6 C21.5281265,-0.6 24.6,2.47109898 24.6,6.26057143 L24.6,17.7382857 Z M23.4,17.7382857 L23.4,6.26057143 C23.4,3.13390844 20.8654525,0.6 17.7382857,0.6 L6.26171429,0.6 C3.1345475,0.6 0.6,3.13390844 0.6,6.26057143 L0.6,17.7382857 C0.6,20.8652006 3.13479942,23.4 6.26171429,23.4 L17.7382857,23.4 C20.8652006,23.4 23.4,20.8652006 23.4,17.7382857 Z" id="Stroke-1988"></path>
                        <path d="M18.8857143,11.9994286 C18.8857143,15.8027994 15.8033708,18.8851429 12,18.8851429 C8.19662915,18.8851429 5.11428571,15.8027994 5.11428571,11.9994286 C5.11428571,8.19605772 8.19662915,5.11371429 12,5.11371429 C15.8033708,5.11371429 18.8857143,8.19605772 18.8857143,11.9994286 Z M17.6857143,11.9994286 C17.6857143,8.85879942 15.1406292,6.31371429 12,6.31371429 C8.85937085,6.31371429 6.31428571,8.85879942 6.31428571,11.9994286 C6.31428571,15.1400577 8.85937085,17.6851429 12,17.6851429 C15.1406292,17.6851429 17.6857143,15.1400577 17.6857143,11.9994286 Z" id="Stroke-1990"></path>
                        <path d="M20.0285714,3.99942857 C20.0285714,4.64622799 19.5039423,5.17085714 18.8571429,5.17085714 C18.2103434,5.17085714 17.6857143,4.64622799 17.6857143,3.99942857 C17.6857143,3.35262915 18.2103434,2.828 18.8571429,2.828 C19.5039423,2.828 20.0285714,3.35262915 20.0285714,3.99942857 Z" id="Stroke-1992"></path>
                    </g>
                </g>
            </g>
        </g>
    </g>
</svg>