<?xml version="1.0" encoding="UTF-8"?>
<svg width="26px" height="26px" viewBox="0 0 26 26" version="1.1" xmlns="http://www.w3.org/2000/svg" xmlns:xlink="http://www.w3.org/1999/xlink">
    <!-- Generator: Sketch 55.2 (78181) - https://sketchapp.com -->
    <title>Stroke 2037</title>
    <desc>Created with Sketch.</desc>
    <g id="Symbols" stroke="none" stroke-width="1" fill="none" fill-rule="evenodd">
        <g id="Desktop/Organism/Footer/Default" transform="translate(-637.000000, -466.000000)" fill="#DEDEDE" fill-rule="nonzero">
            <g id="Social-Icons">
                <g transform="translate(638.000000, 467.000000)">
                    <g id="Facebook">
                        <path d="M9.76685714,14.2571429 L9.76685714,12.0285714 L11.4285714,12.0285714 C11.7599423,12.0285714 12.0285714,11.7599423 12.0285714,11.4285714 L12.0285714,9.14285714 C12.0285714,6.94965656 13.8067994,5.17142857 16,5.17142857 L18.8285714,5.17142857 L18.8285714,7.4 L16,7.4 C15.037772,7.4 14.2571429,8.18062915 14.2571429,9.14285714 L14.2571429,11.4285714 C14.2571429,11.7599423 14.525772,12.0285714 14.8571429,12.0285714 L18.7202952,12.0285714 L18.3488666,14.2571429 L14.8571429,14.2571429 C14.525772,14.2571429 14.2571429,14.525772 14.2571429,14.8571429 L14.2571429,24 C14.2571429,24.3313708 14.525772,24.6 14.8571429,24.6 L22.2857143,24.6 C23.5645137,24.6 24.6,23.5645137 24.6,22.2857143 L24.6,1.71428571 C24.6,0.435486293 23.5645137,-0.6 22.2857143,-0.6 L1.71428571,-0.6 C0.435486293,-0.6 -0.6,0.435486293 -0.6,1.71428571 L-0.6,22.2857143 C-0.6,23.5645137 0.435486293,24.6 1.71428571,24.6 L11.4285714,24.6 C11.7599423,24.6 12.0285714,24.3313708 12.0285714,24 L12.0285714,14.8571429 C12.0285714,14.525772 11.7599423,14.2571429 11.4285714,14.2571429 L9.76685714,14.2571429 Z M15.4571429,15.4571429 L18.8571429,15.4571429 C19.1504463,15.4571429 19.4007604,15.245095 19.4489792,14.9557822 L20.0204078,11.5272108 C20.081361,11.1614918 19.7993351,10.8285714 19.4285714,10.8285714 L15.4571429,10.8285714 L15.4571429,9.14285714 C15.4571429,8.84337085 15.7005137,8.6 16,8.6 L19.4285714,8.6 C19.7599423,8.6 20.0285714,8.33137085 20.0285714,8 L20.0285714,4.57142857 C20.0285714,4.24005772 19.7599423,3.97142857 19.4285714,3.97142857 L16,3.97142857 C13.1440577,3.97142857 10.8285714,6.28691486 10.8285714,9.14285714 L10.8285714,10.8285714 L9.16685714,10.8285714 C8.83548629,10.8285714 8.56685714,11.0972006 8.56685714,11.4285714 L8.56685714,14.8571429 C8.56685714,15.1885137 8.83548629,15.4571429 9.16685714,15.4571429 L10.8285714,15.4571429 L10.8285714,23.4 L1.71428571,23.4 C1.09822799,23.4 0.6,22.901772 0.6,22.2857143 L0.6,1.71428571 C0.6,1.09822799 1.09822799,0.6 1.71428571,0.6 L22.2857143,0.6 C22.901772,0.6 23.4,1.09822799 23.4,1.71428571 L23.4,22.2857143 C23.4,22.901772 22.901772,23.4 22.2857143,23.4 L15.4571429,23.4 L15.4571429,15.4571429 Z" id="Stroke-2037"></path>
                    </g>
                </g>
            </g>
        </g>
    </g>
</svg>