<svg width="24" height="24" viewBox="0 0 24 24" fill="none" xmlns="http://www.w3.org/2000/svg">
<path fill-rule="evenodd" clip-rule="evenodd" d="M5 2V22H18.89V2H5ZM17.6273 3.17188V16.1406H6.26273V3.17188H17.6273ZM6.26273 20.8281V17.3125H17.6273V20.8281H6.26273ZM10.5 18.5H13.5V19.5H10.5V18.5ZM12.0584 11.7324H12.0592C12.6882 11.7324 13.1331 11.3626 13.1999 11.0048C13.2923 10.5099 12.6392 10.222 12.3542 10.1212C11.4318 9.79499 10.6131 9.4456 10.5787 9.43091L10.532 9.41093L10.4891 9.38418C9.8929 9.01164 9.58592 8.35848 9.68794 7.67956C9.79708 6.95326 10.3535 6.36143 11.1402 6.13504C11.1839 6.12245 11.2273 6.11143 11.2706 6.10107L11.2709 5L12.5629 5.00033L12.5626 6.07841C13.4351 6.24706 14.0384 6.72316 14.0752 6.75279L13.2439 7.70069L13.247 7.70319C13.2372 7.69546 12.4132 7.06153 11.5118 7.32093C11.0735 7.44706 10.9846 7.73718 10.9668 7.85605C10.9389 8.04166 11.0107 8.21344 11.16 8.32336C11.3565 8.40595 12.0525 8.6947 12.8015 8.9596C14.2489 9.47148 14.6133 10.4644 14.4717 11.2229C14.3815 11.7058 14.0885 12.1495 13.6465 12.4723C13.335 12.6998 12.9614 12.8545 12.5628 12.9257L12.5624 14L11.2704 13.9996L11.2707 12.8849C10.5834 12.736 9.95298 12.3984 9.5 11.9194L10.4573 11.0879C10.8387 11.4911 11.4372 11.7321 12.0584 11.7324Z" fill="white"/>
</svg>
