<svg width="24" height="24" viewBox="0 0 24 24" fill="none" xmlns="http://www.w3.org/2000/svg">
<path fill-rule="evenodd" clip-rule="evenodd" d="M15.49 5.22655C15.7526 3.93375 16.8917 3 18.2168 3C19.7514 3 21 4.24856 21 5.78321C21 7.12729 20.0423 8.25184 18.7734 8.5104V12.4629C18.7734 12.6106 18.7148 12.7521 18.6104 12.8565L9.62993 21.837C9.41252 22.0544 9.0601 22.0544 8.84275 21.837L2.16304 15.1573C1.94565 14.9399 1.94565 14.5875 2.16304 14.3701L11.1435 5.38959C11.2479 5.28521 11.3894 5.22655 11.5371 5.22655H15.49ZM14.4833 9.51666C14.7004 9.73367 15.0535 9.73373 15.2705 9.51666C15.4881 9.29907 15.4881 8.947 15.2705 8.72942C15.0535 8.5124 14.7003 8.5124 14.4833 8.72942C14.2658 8.947 14.2658 9.29907 14.4833 9.51666ZM9.23631 20.6562L17.6601 12.2323V6.33982H16.47L16.2457 8.16708C16.7007 8.81801 16.6384 9.72325 16.0577 10.3039C15.4066 10.955 14.3472 10.9549 13.6961 10.3039C13.045 9.65281 13.045 8.59333 13.6961 7.94229C14.106 7.53236 14.6777 7.38076 15.2075 7.48698L15.3484 6.33982H11.7677L3.34385 14.7637L9.23631 20.6562ZM18.7734 5.78321V7.35741C19.4213 7.12758 19.8867 6.50888 19.8867 5.78321C19.8867 4.8624 19.1375 4.11327 18.2168 4.11327C17.4997 4.11327 16.8734 4.56865 16.6418 5.22655H18.2168C18.5242 5.22655 18.7734 5.47578 18.7734 5.78321ZM11.6316 11.5813L12.0787 11.1343C12.296 10.9169 12.6485 10.9169 12.8658 11.1343C13.0832 11.3517 13.0832 11.7042 12.8658 11.9216L12.4259 12.3614C12.5644 12.6365 12.6419 12.9588 12.6475 13.3124C12.6523 13.6198 12.4071 13.8729 12.0997 13.8778C11.7913 13.883 11.5392 13.6374 11.5343 13.33C11.5284 12.9527 11.3811 12.678 11.1302 12.5764C10.9224 12.4923 10.6857 12.5403 10.5271 12.6989C10.3101 12.9159 10.3101 13.269 10.5271 13.486C11.1782 14.1372 11.1782 15.1966 10.5271 15.8477C10.2078 16.1671 9.77831 16.336 9.34348 16.3361C9.10512 16.3361 8.86522 16.2853 8.64077 16.1807C8.63298 16.1771 8.62549 16.1732 8.61782 16.1695L8.14259 16.6447C7.92518 16.8622 7.5727 16.8621 7.35535 16.6447C7.13799 16.4273 7.13799 16.0749 7.35535 15.8575L7.83132 15.3816C7.66209 15.0361 7.59004 14.6176 7.63027 14.1554C7.65694 13.8491 7.92689 13.6225 8.23307 13.6491C8.53936 13.6758 8.76598 13.9457 8.73937 14.2519C8.69971 14.7079 8.83512 15.0431 9.11102 15.1717C9.32231 15.2701 9.57497 15.2254 9.73996 15.0605C9.95697 14.8435 9.95697 14.4903 9.73996 14.2732C9.08887 13.6222 9.08887 12.5627 9.73996 11.9116C10.2153 11.4363 10.9251 11.2922 11.5482 11.5446C11.5765 11.556 11.6042 11.5685 11.6316 11.5813Z" fill="white"/>
</svg>
