<svg width="24" height="24" viewBox="0 0 24 24" fill="none" xmlns="http://www.w3.org/2000/svg">
<path fill-rule="evenodd" clip-rule="evenodd" d="M17.7018 3H6.29825V18H9H15H17.7018V3ZM5.15789 19H9V23L12 21.6486L15 23V19H18.8421V17.1333H22V5H18.8421V2H5.15789V5H2V17.1333H5.15789V19ZM10 21.5V19H14V21.5L12 20.5L10 21.5ZM16 16V14H8V16H16ZM9.05263 7H8V5H9.05263V7ZM10.4211 7H11.4737V5H10.4211V7ZM13.5789 7H12.5263V5H13.5789V7ZM15 7H16.0526V5H15V7ZM16 10H8V9H16V10ZM8 12H12V11H8V12ZM5.05423 6.07269H3.1563V16.0606H5.05423V6.07269ZM18.9458 6.07269H20.8437V16.0606H18.9458V6.07269Z" fill="white"/>
</svg>
